<?xml version="1.0" standalone="no"?>
<!DOCTYPE svg PUBLIC "-//W3C//DTD SVG 20010904//EN"
 "http://www.w3.org/TR/2001/REC-SVG-20010904/DTD/svg10.dtd">
<svg version="1.0" xmlns="http://www.w3.org/2000/svg"
 width="260.000000pt" height="260.000000pt" viewBox="0 0 260.000000 260.000000"
 preserveAspectRatio="xMidYMid meet">
<metadata>
Created by potrace 1.11, written by Peter Selinger 2001-2013
</metadata>
<g transform="translate(0.000000,260.000000) scale(0.100000,-0.100000)"
fill="#000000" stroke="none">
<path d="M440 2590 c-9 -6 -10 -10 -3 -10 6 0 15 5 18 10 8 12 4 12 -15 0z"/>
<path d="M462 2575 c-6 -16 -11 -24 -11 -17 -2 21 -29 13 -37 -10 -5 -13 -7
-27 -6 -31 1 -5 -2 -6 -8 -2 -7 4 -7 12 0 26 6 10 8 19 6 19 -3 0 -12 -13 -21
-29 -11 -22 -12 -32 -3 -37 7 -5 8 -3 3 6 -5 8 -4 11 3 7 5 -4 8 -16 5 -27 -3
-11 -9 -17 -14 -14 -16 9 -10 -3 8 -17 14 -12 16 -12 8 0 -5 10 -4 12 3 7 17
-10 15 -26 -3 -26 -8 0 -15 -4 -15 -10 0 -5 7 -6 17 -3 10 4 14 2 9 -5 -3 -6
-1 -14 5 -18 8 -4 9 -3 5 4 -4 7 -3 12 3 12 5 0 11 -5 13 -11 2 -7 17 -12 33
-13 17 -1 35 -4 41 -8 6 -4 11 -1 11 7 0 8 -5 11 -11 8 -6 -3 -7 -2 -3 2 10
11 39 16 32 5 -3 -4 6 -10 19 -12 15 -3 23 -1 20 6 -3 7 7 12 23 13 16 0 20
-1 11 -4 -21 -5 -23 -19 -6 -29 7 -5 8 -3 3 6 -6 10 -4 12 8 7 9 -3 17 -2 19
4 2 5 14 11 27 14 13 2 20 1 17 -3 -4 -4 -13 -7 -18 -7 -6 0 -13 -7 -15 -15
-3 -10 -2 -11 4 -4 4 6 18 10 30 9 12 -1 19 3 17 10 -3 6 7 12 21 13 14 1 25
-3 25 -8 0 -5 -7 -7 -15 -4 -8 4 -15 1 -15 -6 0 -6 4 -9 9 -5 5 3 12 1 16 -4
7 -12 35 -3 35 11 0 5 -4 7 -8 4 -5 -3 -9 1 -9 8 0 11 4 12 18 3 10 -6 15 -16
12 -22 -4 -5 6 1 22 15 l28 25 -13 -25 c-7 -14 -9 -22 -5 -18 5 4 14 3 22 -3
10 -9 13 -8 13 1 0 9 3 10 14 1 10 -9 16 -8 26 3 10 13 8 14 -10 11 -13 -2
-20 -1 -16 2 10 10 56 11 50 1 -3 -4 -2 -8 3 -9 46 -4 60 -3 57 6 -3 6 8 11
23 12 24 1 25 0 8 -7 -18 -8 -18 -9 -2 -9 11 -1 16 -6 12 -13 -4 -7 0 -5 8 5
8 10 25 20 37 22 13 2 19 1 16 -3 -4 -4 -13 -7 -18 -7 -6 0 -13 -7 -15 -15 -3
-10 -2 -11 4 -4 4 6 18 10 30 9 12 -1 19 3 17 10 -3 6 6 11 18 12 13 0 17 -1
11 -4 -21 -8 -15 -18 11 -18 18 0 22 3 14 12 -8 10 -4 10 21 2 17 -6 28 -15
25 -20 -3 -5 1 -9 9 -9 10 0 14 7 11 23 -4 20 -4 21 5 2 6 -14 5 -23 -4 -31
-11 -8 -10 -12 3 -22 14 -10 14 -14 3 -19 -10 -4 -8 -9 10 -20 23 -14 24 -14
2 -10 -13 3 -26 1 -29 -4 -3 -5 0 -8 6 -7 7 2 16 -7 20 -19 7 -16 6 -21 -4
-17 -7 3 -13 -2 -13 -10 0 -8 3 -14 6 -13 3 1 7 -2 8 -8 1 -5 -5 -9 -13 -7 -8
2 -14 -2 -14 -8 0 -5 5 -9 11 -8 6 2 14 -3 17 -11 3 -9 0 -11 -9 -6 -8 5 -11
5 -7 0 4 -4 3 -16 -3 -26 -7 -14 -6 -17 5 -13 8 3 17 0 22 -7 4 -8 3 -10 -4
-5 -7 4 -12 2 -12 -4 0 -6 -4 -8 -10 -5 -6 3 -7 -1 -4 -10 5 -11 10 -13 19 -5
11 9 12 6 8 -12 -3 -13 -11 -29 -17 -37 -8 -11 -8 -13 0 -8 7 4 14 -3 16 -17
3 -16 1 -23 -7 -20 -6 3 -12 -2 -12 -10 0 -8 4 -13 8 -10 4 2 11 -1 15 -7 5
-8 3 -9 -6 -4 -10 6 -11 2 -6 -19 5 -21 4 -26 -6 -20 -7 4 -10 4 -6 -1 4 -4 3
-16 -3 -26 -7 -14 -6 -17 5 -13 21 8 28 -12 10 -30 -8 -9 -11 -16 -6 -16 15 0
23 -28 10 -36 -6 -4 -8 -3 -4 4 3 6 1 14 -5 18 -8 4 -9 3 -5 -4 4 -7 2 -12 -5
-12 -9 0 -8 -4 3 -12 20 -17 31 -49 14 -42 -7 3 -13 -2 -13 -10 0 -8 4 -13 8
-10 4 2 11 -1 15 -7 5 -8 3 -9 -6 -4 -10 6 -11 2 -6 -19 5 -21 4 -26 -6 -20
-7 4 -10 4 -6 -1 4 -4 3 -16 -3 -26 -7 -14 -6 -17 5 -13 8 3 17 0 22 -7 4 -8
3 -10 -4 -5 -7 4 -12 2 -12 -4 0 -6 -4 -8 -10 -5 -6 3 -7 -1 -4 -10 5 -11 10
-13 19 -5 11 9 12 6 8 -12 -3 -13 -11 -29 -17 -37 -8 -11 -8 -13 0 -8 7 4 14
-3 16 -17 3 -16 1 -23 -7 -20 -6 3 -12 -2 -12 -10 0 -8 4 -13 8 -10 4 2 11 -1
15 -7 5 -8 3 -9 -6 -4 -10 6 -11 2 -6 -19 5 -21 4 -26 -6 -20 -7 4 -10 4 -6
-1 4 -4 3 -16 -3 -26 -7 -14 -6 -17 5 -13 21 8 28 -12 10 -30 -8 -9 -11 -16
-6 -16 15 0 23 -28 10 -36 -6 -4 -8 -3 -4 4 3 6 1 14 -5 18 -8 4 -9 3 -5 -4 4
-7 2 -12 -5 -12 -9 0 -8 -4 3 -12 20 -17 31 -49 14 -42 -7 3 -13 -2 -13 -10 0
-8 4 -13 8 -10 4 2 11 -1 15 -7 5 -8 3 -9 -6 -4 -10 6 -11 2 -6 -19 5 -21 4
-26 -6 -20 -7 4 -10 4 -6 -1 4 -4 3 -16 -3 -26 -7 -14 -6 -17 5 -13 8 3 17 0
22 -7 4 -8 3 -10 -4 -5 -7 4 -12 2 -12 -4 0 -6 -4 -8 -10 -5 -6 3 -7 -1 -4
-10 5 -11 10 -13 19 -5 11 9 12 6 8 -12 -3 -13 -11 -29 -17 -37 -8 -11 -8 -13
0 -8 7 4 14 -3 16 -17 3 -16 1 -23 -7 -20 -6 3 -12 -2 -12 -10 0 -8 4 -13 8
-10 4 2 11 -1 15 -7 5 -8 3 -9 -6 -4 -10 6 -11 2 -6 -19 5 -21 4 -26 -6 -20
-7 4 -10 4 -6 -1 4 -4 3 -16 -3 -26 -7 -14 -6 -17 5 -13 21 8 28 -12 10 -30
-8 -9 -11 -16 -6 -16 15 0 23 -28 10 -36 -6 -4 -8 -3 -4 4 3 6 1 14 -5 18 -8
4 -9 3 -5 -4 4 -7 2 -12 -5 -12 -9 0 -8 -4 3 -12 20 -17 31 -49 14 -42 -7 3
-13 -2 -13 -10 0 -8 4 -13 8 -10 4 2 11 -1 15 -7 5 -8 3 -9 -6 -4 -10 6 -11 2
-6 -19 5 -21 4 -26 -6 -20 -7 4 -10 4 -6 -1 4 -4 3 -16 -3 -26 -7 -14 -6 -17
5 -13 8 3 17 0 22 -7 4 -8 3 -10 -4 -5 -7 4 -12 2 -12 -4 0 -6 -4 -8 -10 -5
-6 3 -7 -1 -4 -10 5 -11 10 -13 19 -5 11 9 12 6 8 -12 -3 -13 -11 -29 -17 -37
-8 -11 -8 -13 0 -8 7 4 14 -3 16 -17 3 -16 1 -23 -7 -20 -6 3 -12 -2 -12 -10
0 -8 4 -13 8 -10 4 2 11 -1 15 -7 5 -8 3 -9 -6 -4 -10 6 -11 2 -6 -19 5 -21 4
-26 -6 -20 -7 4 -10 4 -6 -1 4 -4 3 -16 -3 -26 -7 -14 -6 -17 5 -13 21 8 28
-12 10 -30 -8 -9 -11 -16 -6 -16 15 0 23 -28 10 -36 -6 -4 -8 -3 -4 4 3 6 1
14 -5 18 -8 4 -9 3 -5 -4 4 -7 2 -12 -5 -12 -9 0 -8 -4 3 -13 20 -16 31 -48
14 -41 -7 3 -13 -2 -13 -10 0 -8 4 -13 8 -10 4 2 11 -1 15 -7 5 -8 3 -9 -6 -4
-10 6 -11 2 -6 -19 5 -21 4 -26 -6 -20 -7 4 -10 4 -6 -1 4 -4 3 -16 -3 -26 -7
-14 -6 -17 5 -13 8 3 17 0 22 -7 4 -8 3 -10 -4 -5 -7 4 -12 2 -12 -4 0 -6 -4
-8 -10 -5 -6 3 -7 -1 -4 -10 5 -11 10 -13 19 -5 11 9 12 6 8 -12 -3 -13 -11
-29 -17 -37 -9 -12 -8 -13 3 -6 11 6 13 4 8 -8 -3 -9 -2 -19 3 -22 11 -7 2
-35 -12 -35 -6 0 -5 6 2 15 16 19 3 20 -16 1 -12 -13 -12 -15 5 -21 11 -3 22
-12 25 -21 5 -12 2 -13 -17 -3 -19 11 -20 10 -10 -3 7 -8 11 -17 8 -19 -2 -3
38 -6 90 -8 105 -3 132 8 112 45 -9 16 -8 17 4 7 12 -10 15 -8 15 6 0 10 -5
18 -11 17 -5 -1 -11 4 -12 9 -1 6 8 9 20 7 19 -2 19 0 -5 13 -34 19 -35 23 -3
20 14 -2 23 1 19 6 -3 5 -10 7 -15 4 -11 -8 -29 36 -21 50 13 21 12 46 0 39
-10 -6 -10 -5 -1 8 7 8 9 19 5 23 -4 5 -1 5 7 0 9 -5 12 -3 9 6 -3 8 2 23 11
34 15 18 15 19 -2 6 -14 -11 -20 -12 -30 -2 -9 10 -9 12 2 9 7 -2 16 3 19 11
3 8 0 11 -7 7 -7 -5 -9 -1 -4 10 4 12 3 15 -5 10 -8 -5 -10 -2 -6 8 5 13 9 12
26 -7 l19 -22 -13 23 c-11 19 -11 24 2 33 12 8 10 9 -7 4 -21 -6 -21 -4 -10
32 6 21 16 42 22 46 5 5 0 5 -13 2 -23 -7 -23 -6 -8 29 8 20 11 38 6 41 -5 3
-7 12 -3 20 3 10 -1 15 -13 15 -16 0 -16 2 -4 9 8 6 17 8 20 6 4 -2 6 6 5 17
-1 12 -7 24 -13 26 -7 2 -12 8 -12 14 0 6 7 8 15 5 8 -4 17 -2 20 4 4 5 1 8
-7 7 -8 -2 -12 4 -10 16 2 10 -1 15 -7 11 -7 -4 -8 0 -4 11 5 13 3 15 -8 9
-11 -7 -12 -6 -2 7 7 8 9 19 5 23 -4 5 -1 4 7 0 11 -6 13 -4 8 8 -4 10 1 21
11 27 15 9 14 10 -5 5 -12 -3 -24 -1 -28 5 -4 6 -1 9 6 8 6 -2 14 3 17 11 3 8
0 11 -7 7 -7 -5 -9 -1 -4 10 4 12 3 15 -5 10 -8 -5 -10 -2 -6 9 6 14 8 14 20
-2 13 -17 14 -17 8 1 -4 10 -1 22 7 28 10 7 8 8 -8 3 -21 -6 -21 -4 -10 32 6
21 16 42 22 46 5 5 0 5 -13 2 -23 -7 -23 -6 -8 29 9 21 11 38 5 41 -5 4 -7 10
-4 15 3 5 -3 13 -12 19 -10 6 -13 11 -6 11 6 0 9 9 6 20 -3 11 -1 20 4 20 6 0
9 -10 8 -23 -2 -15 2 -24 11 -24 10 0 11 4 4 11 -14 14 -13 29 3 21 6 -4 2 2
-10 13 -13 11 -23 23 -23 27 0 3 10 4 23 1 12 -3 16 -3 10 0 -7 3 -13 15 -13
25 0 11 -4 17 -10 14 -6 -4 -7 1 -3 11 5 13 3 15 -8 9 -11 -7 -12 -6 -2 7 7 8
9 19 5 23 -4 5 -1 5 7 0 9 -5 12 -3 9 6 -3 8 2 23 11 34 15 18 15 19 -2 6 -14
-11 -20 -12 -30 -2 -9 10 -9 12 2 9 7 -2 16 3 19 11 3 8 0 11 -7 7 -7 -5 -9
-1 -4 10 4 12 3 15 -5 10 -8 -5 -10 -2 -6 8 3 9 10 16 16 16 5 0 7 -4 4 -9 -3
-5 2 -15 12 -22 15 -13 16 -12 3 4 -7 9 -10 17 -6 17 4 0 2 7 -5 15 -7 8 -9
15 -4 15 5 0 0 7 -10 15 -11 8 -15 15 -9 15 6 0 9 9 6 20 -3 11 -1 20 4 20 6
0 9 -10 8 -23 -2 -15 2 -24 11 -24 10 0 11 4 4 11 -14 14 -13 29 3 21 6 -4 2
2 -10 13 -13 11 -23 23 -23 27 0 3 10 4 23 1 12 -3 16 -3 10 0 -7 3 -13 15
-13 25 0 11 -4 17 -10 14 -6 -4 -7 1 -3 11 5 13 3 15 -8 9 -11 -7 -12 -6 -2 7
7 8 9 19 5 23 -4 5 -1 5 7 0 9 -5 12 -3 9 6 -3 8 2 23 11 34 15 18 15 19 -2 6
-14 -11 -20 -12 -30 -2 -9 10 -9 12 2 9 7 -2 16 3 19 11 3 8 0 11 -7 7 -7 -5
-9 -1 -4 10 4 12 3 15 -5 10 -8 -5 -10 -2 -6 8 5 13 9 12 26 -7 l19 -22 -13
23 c-11 19 -11 24 2 33 12 8 10 9 -7 4 -21 -6 -21 -4 -10 32 6 21 16 42 22 46
5 5 0 5 -13 2 -23 -7 -23 -6 -8 29 8 20 11 38 6 41 -5 3 -7 12 -3 20 3 10 -1
15 -13 15 -16 0 -16 2 -4 9 8 6 17 8 20 6 4 -2 6 6 5 17 -1 12 -7 24 -13 26
-7 2 -12 8 -12 14 0 6 7 8 15 5 8 -4 17 -2 20 4 4 5 1 8 -7 7 -8 -2 -12 4 -10
16 2 10 -1 15 -7 11 -7 -4 -8 0 -4 11 5 13 3 15 -8 9 -11 -7 -12 -6 -2 7 7 8
9 19 5 23 -4 5 -1 4 7 0 11 -6 13 -4 8 8 -4 10 1 21 11 27 15 9 14 10 -5 5
-12 -3 -24 -1 -28 5 -4 6 -1 9 6 8 6 -2 14 3 17 11 3 8 0 11 -7 7 -7 -5 -9 -1
-4 10 4 12 3 15 -5 10 -8 -5 -10 -2 -6 9 6 14 8 14 20 -2 13 -17 14 -17 8 1
-4 10 -1 22 7 28 10 7 8 8 -8 3 -21 -6 -21 -4 -10 32 6 21 16 42 22 46 5 5 0
5 -12 2 -22 -6 -22 -6 -8 34 13 37 12 39 -3 34 -15 -6 -15 -4 -4 9 10 13 10
18 1 24 -8 4 -9 3 -5 -4 10 -17 1 -15 -14 4 -11 12 -11 15 0 12 9 -2 14 6 15
18 0 25 24 56 37 48 5 -3 16 0 25 8 10 8 14 8 10 1 -4 -6 -2 -15 5 -19 19 -12
72 -12 87 -1 15 13 63 18 55 6 -2 -4 -13 -6 -23 -4 -10 2 -18 -3 -18 -11 0 -8
4 -14 9 -14 4 0 8 4 8 9 0 5 11 8 24 7 15 -2 23 1 20 8 -3 7 7 13 21 14 14 1
25 -3 25 -8 0 -5 -7 -7 -15 -4 -8 4 -15 1 -15 -6 0 -6 4 -9 9 -5 5 3 12 1 16
-4 7 -12 35 -3 35 11 0 5 -4 7 -8 4 -5 -3 -9 1 -9 8 0 11 4 12 18 3 10 -6 15
-16 12 -22 -4 -5 6 1 22 15 l28 25 -13 -25 c-7 -14 -9 -22 -5 -18 5 4 14 3 22
-3 10 -9 13 -8 13 1 0 9 3 10 14 1 10 -9 16 -8 26 3 10 13 8 14 -10 11 -13 -2
-20 -1 -16 2 10 10 56 11 50 1 -3 -4 -2 -8 3 -9 46 -4 60 -3 57 6 -3 6 8 11
23 12 24 1 25 0 8 -7 -18 -8 -18 -9 -2 -9 11 -1 16 -6 12 -13 -4 -7 0 -5 8 5
8 10 25 20 37 22 13 2 19 1 16 -3 -4 -4 -13 -7 -19 -7 -5 0 -12 -7 -14 -15 -3
-10 -2 -11 4 -4 4 6 18 10 30 9 12 -1 19 3 17 10 -3 6 6 11 18 12 13 0 17 -1
11 -4 -23 -9 -13 -18 18 -18 23 0 34 6 40 20 l8 20 1 -20 c2 -11 2 -23 1 -27
0 -5 4 -8 10 -8 6 0 8 10 5 23 -3 12 -3 16 0 9 3 -6 11 -9 16 -6 6 4 8 2 4 -4
-3 -6 -1 -14 5 -18 8 -5 9 -3 4 6 -6 10 -2 12 18 8 24 -5 25 -3 15 16 -10 18
-9 19 4 8 13 -11 15 -2 17 69 2 80 2 81 -21 73 -19 -6 -21 -5 -11 7 8 10 9 19
1 29 -8 13 -9 12 -5 -2 7 -20 -5 -25 -49 -20 -30 4 -33 6 -22 21 12 14 11 15
-5 2 -11 -9 -14 -17 -8 -25 7 -8 4 -12 -10 -12 -11 0 -17 5 -15 12 3 7 -3 10
-15 7 -10 -3 -19 -10 -19 -17 0 -7 -3 -7 -8 -1 -4 6 -14 10 -22 10 -8 0 -19
-4 -23 -10 -5 -6 -7 -4 -4 6 3 9 1 22 -5 30 -8 11 -9 10 -4 -3 3 -12 0 -18
-10 -18 -9 0 -12 5 -8 12 4 7 3 8 -4 4 -7 -4 -12 -14 -12 -22 0 -8 -5 -12 -10
-9 -6 4 -8 10 -6 14 3 4 1 13 -5 21 -6 11 -9 12 -9 2 0 -7 -5 -10 -12 -6 -7 4
-8 3 -4 -5 4 -6 12 -9 17 -6 5 4 6 -2 2 -11 -4 -11 -8 -13 -11 -6 -2 7 -13 12
-24 12 -18 0 -19 2 -7 18 13 15 12 16 -4 3 -11 -9 -14 -17 -8 -25 7 -8 4 -12
-10 -12 -11 0 -17 5 -15 12 3 7 -3 10 -15 7 -10 -3 -19 -10 -19 -17 0 -7 -3
-7 -8 -1 -4 6 -14 10 -22 10 -8 0 -19 -4 -23 -10 -5 -6 -7 -4 -4 6 3 9 1 22
-5 30 -8 11 -9 10 -4 -3 3 -12 0 -18 -10 -18 -9 0 -12 5 -8 12 4 7 3 8 -4 4
-7 -4 -12 -14 -12 -22 0 -8 -5 -12 -10 -9 -6 4 -8 10 -6 14 3 4 1 13 -5 21 -6
11 -9 12 -9 2 0 -7 -5 -10 -12 -6 -7 4 -8 3 -4 -5 4 -6 12 -9 17 -6 5 4 6 -2
2 -11 -4 -11 -8 -13 -11 -6 -2 7 -13 12 -24 12 -18 0 -19 2 -7 18 13 15 12 16
-4 3 -11 -9 -14 -17 -8 -25 7 -8 4 -12 -10 -12 -11 0 -17 5 -15 12 3 7 -3 10
-15 7 -10 -3 -19 -10 -19 -17 0 -7 -3 -7 -8 -1 -4 6 -14 10 -22 10 -8 0 -19
-4 -23 -10 -5 -6 -7 -4 -4 6 3 9 1 22 -5 30 -8 11 -9 10 -4 -3 3 -12 0 -18
-10 -18 -9 0 -12 5 -8 12 4 7 3 8 -4 4 -7 -4 -12 -14 -12 -22 0 -8 -5 -12 -10
-9 -6 4 -8 10 -6 14 3 4 1 13 -5 21 -6 11 -9 12 -9 2 0 -7 -5 -10 -12 -6 -7 4
-8 3 -4 -5 4 -6 12 -9 17 -6 5 4 6 -2 2 -11 -4 -11 -8 -13 -11 -6 -2 7 -13 12
-24 12 -18 0 -19 2 -7 18 13 15 12 16 -4 3 -11 -9 -14 -17 -8 -25 7 -8 4 -12
-10 -12 -11 0 -17 5 -15 12 3 7 -3 10 -15 7 -10 -3 -19 -10 -19 -17 0 -7 -3
-7 -8 -1 -4 6 -14 10 -22 10 -8 0 -19 -4 -23 -10 -5 -6 -7 -4 -4 6 3 9 1 22
-5 30 -8 11 -9 10 -4 -3 3 -12 0 -18 -10 -18 -9 0 -12 5 -8 12 4 7 3 8 -4 4
-7 -4 -12 -14 -12 -22 0 -8 -5 -12 -10 -9 -6 4 -8 10 -6 14 3 4 1 13 -5 21 -6
11 -9 12 -9 2 0 -7 -5 -10 -12 -6 -7 4 -8 3 -4 -5 4 -6 12 -9 17 -6 5 4 6 -2
2 -11 -4 -11 -8 -13 -11 -6 -2 7 -13 12 -24 12 -18 0 -19 2 -7 18 13 15 12 16
-4 3 -11 -9 -14 -17 -8 -25 7 -8 4 -12 -10 -12 -11 0 -17 5 -15 12 3 7 -3 10
-15 7 -10 -3 -19 -10 -19 -17 0 -7 -3 -7 -8 -1 -4 6 -14 10 -22 10 -8 0 -19
-4 -23 -10 -5 -6 -7 -4 -4 6 3 9 1 22 -5 30 -8 11 -9 10 -4 -3 3 -12 0 -18
-10 -18 -9 0 -12 5 -8 12 4 7 3 8 -4 4 -7 -4 -12 -14 -12 -22 0 -8 -5 -12 -10
-9 -6 4 -8 10 -6 14 3 4 1 13 -5 21 -6 11 -9 12 -9 2 0 -7 -5 -10 -12 -6 -7 4
-8 3 -4 -5 4 -6 12 -9 17 -6 5 4 6 -2 2 -11 -4 -11 -8 -13 -11 -6 -2 7 -13 12
-24 12 -18 0 -19 2 -7 18 13 15 12 16 -4 3 -11 -9 -14 -17 -8 -25 7 -8 4 -12
-10 -12 -11 0 -17 5 -15 12 3 7 -3 10 -15 7 -10 -3 -19 -10 -19 -17 0 -7 -3
-7 -8 -1 -4 6 -14 10 -22 10 -8 0 -19 -4 -23 -10 -5 -6 -7 -4 -4 6 3 9 1 22
-5 30 -8 11 -9 10 -4 -3 3 -12 0 -18 -10 -18 -9 0 -12 5 -8 12 4 7 3 8 -4 4
-7 -4 -12 -14 -12 -22 0 -8 -5 -12 -10 -9 -6 4 -8 10 -6 14 3 4 1 13 -5 21 -6
11 -9 12 -9 2 0 -7 -5 -10 -12 -6 -7 4 -8 3 -4 -5 4 -6 12 -9 17 -6 5 4 6 -2
2 -11 -4 -11 -8 -13 -11 -6 -2 7 -13 12 -24 12 -18 0 -19 2 -7 18 13 15 12 16
-4 3 -11 -9 -14 -17 -8 -25 7 -8 4 -12 -10 -12 -11 0 -18 5 -15 13 6 13 -19 7
-43 -11 -12 -9 -13 -8 -6 3 6 11 3 13 -19 7 -15 -4 -26 -2 -26 3 0 6 -7 8 -15
5 -8 -4 -12 -11 -8 -17 3 -6 1 -7 -6 -3 -9 6 -9 11 1 23 12 15 11 15 -9 3 -12
-8 -19 -19 -16 -25 3 -5 0 -5 -7 2 -7 6 -19 9 -26 6 -8 -3 -14 0 -14 5 0 6 9
9 20 7 12 -2 18 0 15 6 -4 5 -10 7 -15 4 -4 -3 -10 1 -12 7 -3 7 -10 0 -16
-17z m1 -170 c-3 -9 -8 -14 -10 -11 -3 3 -2 9 2 15 9 16 15 13 8 -4z m387 0
c0 -8 -4 -15 -10 -15 -5 0 -7 7 -4 15 4 8 8 15 10 15 2 0 4 -7 4 -15z m95 6
c3 -5 2 -12 -3 -15 -5 -3 -9 1 -9 9 0 17 3 19 12 6z m865 -6 c0 -8 -4 -15 -10
-15 -5 0 -7 7 -4 15 4 8 8 15 10 15 2 0 4 -7 4 -15z m95 6 c3 -5 2 -12 -3 -15
-5 -3 -9 1 -9 9 0 17 3 19 12 6z m-375 -13 c0 -4 -4 -8 -9 -8 -6 0 -12 4 -15
8 -3 5 1 9 9 9 8 0 15 -4 15 -9z m35 -6 c-3 -3 -11 0 -18 7 -9 10 -8 11 6 5
10 -3 15 -9 12 -12z m565 6 c0 -4 -4 -8 -9 -8 -6 0 -12 4 -15 8 -3 5 1 9 9 9
8 0 15 -4 15 -9z m-717 -133 c-3 -9 -8 -14 -10 -11 -3 3 -2 9 2 15 9 16 15 13
8 -4z m-2 -82 c-12 -20 -14 -14 -5 12 4 9 9 14 11 11 3 -2 0 -13 -6 -23z
m-166 -23 c-3 -5 -12 -10 -18 -10 -7 0 -6 4 3 10 19 12 23 12 15 0z m0 -240
c-3 -5 -12 -10 -18 -10 -7 0 -6 4 3 10 19 12 23 12 15 0z m179 -35 c-4 -8 -8
-15 -10 -15 -2 0 -4 7 -4 15 0 8 4 15 10 15 5 0 7 -7 4 -15z m-6 -95 c-7 -10
-14 -18 -15 -16 -6 6 9 36 18 36 5 0 4 -9 -3 -20z m-7 -87 c-12 -20 -14 -14
-5 12 4 9 9 14 11 11 3 -2 0 -13 -6 -23z m-166 -23 c-3 -5 -12 -10 -18 -10 -7
0 -6 4 3 10 19 12 23 12 15 0z m0 -240 c-3 -5 -12 -10 -18 -10 -7 0 -6 4 3 10
19 12 23 12 15 0z m0 -240 c-3 -5 -12 -10 -18 -10 -7 0 -6 4 3 10 19 12 23 12
15 0z m173 -210 c-7 -10 -14 -18 -15 -16 -6 6 9 36 18 36 5 0 4 -9 -3 -20z
m-173 -30 c-3 -5 -12 -10 -18 -10 -7 0 -6 4 3 10 19 12 23 12 15 0z m166 -57
c-12 -20 -14 -14 -5 12 4 9 9 14 11 11 3 -2 0 -13 -6 -23z m-166 -183 c-3 -5
-12 -10 -18 -10 -7 0 -6 4 3 10 19 12 23 12 15 0z m179 -115 c-4 -8 -8 -15
-10 -15 -2 0 -4 7 -4 15 0 8 4 15 10 15 5 0 7 -7 4 -15z m-6 -95 c-7 -10 -14
-18 -15 -16 -6 6 9 36 18 36 5 0 4 -9 -3 -20z m-173 -30 c-3 -5 -12 -10 -18
-10 -7 0 -6 4 3 10 19 12 23 12 15 0z m166 -57 c-12 -20 -14 -14 -5 12 4 9 9
14 11 11 3 -2 0 -13 -6 -23z m-166 -183 c-3 -5 -12 -10 -18 -10 -7 0 -6 4 3
10 19 12 23 12 15 0z"/>
<path d="M589 2583 c-13 -17 -13 -17 6 -3 11 8 22 16 24 17 2 2 0 3 -6 3 -6 0
-17 -8 -24 -17z"/>
<path d="M834 2589 c1 -7 10 -13 19 -15 9 -1 15 2 11 7 -3 5 -9 7 -14 4 -4 -3
-11 0 -13 5 -3 6 -4 5 -3 -1z"/>
<path d="M1074 2589 c1 -7 10 -13 19 -15 9 -1 15 2 11 7 -3 5 -9 7 -14 4 -4
-3 -11 0 -13 5 -3 6 -4 5 -3 -1z"/>
<path d="M1314 2589 c1 -7 10 -13 19 -15 9 -1 15 2 11 7 -3 5 -9 7 -14 4 -4
-3 -11 0 -13 5 -3 6 -4 5 -3 -1z"/>
<path d="M1554 2589 c1 -7 10 -13 19 -15 9 -1 15 2 11 7 -3 5 -9 7 -14 4 -4
-3 -11 0 -13 5 -3 6 -4 5 -3 -1z"/>
<path d="M1794 2589 c1 -7 10 -13 19 -15 9 -1 15 2 11 7 -3 5 -9 7 -14 4 -4
-3 -11 0 -13 5 -3 6 -4 5 -3 -1z"/>
<path d="M2034 2589 c1 -7 10 -13 19 -15 9 -1 15 2 11 7 -3 5 -9 7 -14 4 -4
-3 -11 0 -13 5 -3 6 -4 5 -3 -1z"/>
<path d="M625 2580 c-3 -6 1 -7 9 -4 18 7 21 14 7 14 -6 0 -13 -4 -16 -10z"/>
<path d="M1432 2385 c-12 -19 -9 -52 4 -52 10 0 11 4 3 13 -7 8 -6 14 3 17 11
4 10 6 0 6 -7 1 -11 5 -7 11 3 5 12 7 19 4 8 -3 16 -2 19 3 3 5 -3 9 -14 9
-11 0 -23 -5 -27 -11z"/>
<path d="M1195 2260 c-3 -6 1 -7 9 -4 18 7 21 14 7 14 -6 0 -13 -4 -16 -10z"/>
<path d="M1210 1880 c-9 -6 -10 -10 -3 -10 6 0 15 5 18 10 8 12 4 12 -15 0z"/>
<path d="M1195 1780 c-3 -6 1 -7 9 -4 18 7 21 14 7 14 -6 0 -13 -4 -16 -10z"/>
<path d="M1210 1400 c-9 -6 -10 -10 -3 -10 6 0 15 5 18 10 8 12 4 12 -15 0z"/>
<path d="M1195 1300 c-3 -6 1 -7 9 -4 18 7 21 14 7 14 -6 0 -13 -4 -16 -10z"/>
<path d="M1210 920 c-9 -6 -10 -10 -3 -10 6 0 15 5 18 10 8 12 4 12 -15 0z"/>
<path d="M1195 820 c-3 -6 1 -7 9 -4 18 7 21 14 7 14 -6 0 -13 -4 -16 -10z"/>
<path d="M1210 440 c-9 -6 -10 -10 -3 -10 6 0 15 5 18 10 8 12 4 12 -15 0z"/>
<path d="M1195 340 c-3 -6 1 -7 9 -4 18 7 21 14 7 14 -6 0 -13 -4 -16 -10z"/>
<path d="M1423 203 c4 -3 2 -12 -4 -20 -9 -9 -8 -13 0 -13 6 0 11 5 11 11 0 5
6 7 13 3 8 -5 8 -2 -2 9 -7 9 -16 17 -19 17 -3 0 -2 -3 1 -7z"/>
<path d="M1430 160 c-9 -6 -10 -10 -3 -10 6 0 15 5 18 10 8 12 4 12 -15 0z"/>
</g>
</svg>
