<?xml version="1.0" standalone="no"?>
<!DOCTYPE svg PUBLIC "-//W3C//DTD SVG 20010904//EN"
 "http://www.w3.org/TR/2001/REC-SVG-20010904/DTD/svg10.dtd">
<svg version="1.0" xmlns="http://www.w3.org/2000/svg"
 width="260.000000pt" height="260.000000pt" viewBox="0 0 260.000000 260.000000"
 preserveAspectRatio="xMidYMid meet">
<metadata>
Created by potrace 1.11, written by Peter Selinger 2001-2013
</metadata>
<g transform="translate(0.000000,260.000000) scale(0.100000,-0.100000)"
fill="#000000" stroke="none">
<path d="M606 2452 c-2 -4 -4 -395 -4 -870 -1 -742 1 -864 13 -869 8 -3 12 -9
9 -14 -3 -5 2 -6 10 -3 15 6 21 -6 16 -31 -1 -5 2 -7 5 -3 11 11 47 -11 39
-24 -4 -6 -3 -8 4 -4 6 3 13 2 17 -4 4 -6 11 -7 17 -4 7 4 8 2 4 -4 -4 -7 -2
-12 4 -12 6 0 8 -5 4 -12 -4 -6 -3 -8 3 -5 13 8 55 -27 45 -37 -4 -4 -2 -6 3
-4 6 1 20 -6 32 -17 33 -30 47 -41 56 -42 5 -1 25 -19 45 -40 19 -21 31 -31
26 -23 -6 11 -3 10 7 -2 9 -9 19 -14 23 -11 3 4 6 -4 6 -17 0 -19 2 -21 15
-10 13 11 14 10 10 -3 -4 -8 -1 -18 6 -23 8 -5 10 -3 5 7 -4 8 2 3 14 -11 12
-14 19 -18 15 -10 -4 8 1 6 9 -4 9 -11 16 -25 16 -30 0 -6 4 -5 9 3 7 11 10 9
16 -8 3 -12 11 -18 17 -15 8 5 9 1 4 -11 -5 -14 -4 -15 7 -7 10 9 17 5 31 -18
9 -17 24 -30 32 -30 8 0 12 -5 9 -10 -4 -6 -3 -10 2 -9 19 3 34 -2 29 -9 -3
-5 6 -15 19 -22 13 -7 22 -17 19 -22 -3 -4 4 -8 15 -8 12 0 21 5 21 11 0 8 6
7 17 -2 15 -13 15 -12 4 9 -6 12 -8 22 -4 21 20 -3 34 2 28 11 -3 5 1 10 10
10 10 0 13 5 9 12 -5 7 -2 9 7 6 15 -6 42 16 32 25 -3 4 6 9 21 13 14 3 23 10
20 15 -3 5 0 9 7 9 6 0 22 12 35 26 15 15 29 22 37 18 8 -5 7 -2 -2 9 -12 15
-12 17 3 11 9 -3 16 -1 16 6 0 6 5 8 10 5 9 -6 14 7 11 27 0 4 6 5 13 2 8 -3
19 3 26 15 6 12 18 21 26 21 8 0 13 4 10 9 -3 5 4 11 15 14 12 3 18 10 14 16
-4 7 0 8 11 4 12 -4 15 -3 10 5 -5 8 1 12 15 12 19 0 20 2 8 17 -9 11 -10 14
-2 9 14 -8 45 6 44 20 -1 5 3 9 8 9 5 0 17 9 27 20 11 12 17 16 14 10 -3 -6 5
0 16 13 15 16 26 22 35 16 10 -6 10 -3 -1 11 -8 10 -10 16 -3 12 6 -4 13 -2
15 3 2 6 13 12 25 13 12 0 19 5 17 9 -3 5 -10 5 -16 2 -7 -4 -8 -2 -4 5 4 6
12 9 17 6 5 -4 9 -1 9 4 0 6 6 10 13 9 6 -2 11 3 9 10 -1 6 7 12 17 12 15 0
19 6 16 23 -4 20 -3 20 9 5 11 -15 13 -13 14 18 1 22 -2 32 -9 28 -8 -4 -8 0
0 14 14 27 14 35 -1 26 -10 -6 -10 -4 -2 7 14 18 16 122 2 113 -5 -3 -4 4 4
15 11 18 11 23 -1 30 -11 7 -11 9 0 14 12 4 11 7 -1 16 -10 7 -11 11 -2 11 18
0 15 27 -5 40 -15 9 -15 11 -2 7 14 -5 17 4 17 54 0 35 -4 56 -10 53 -5 -3 -4
4 4 15 11 18 11 23 -1 30 -11 7 -11 9 0 14 12 4 11 7 -1 16 -10 7 -11 11 -2
11 18 0 15 27 -5 40 -17 11 -17 11 0 6 12 -4 17 0 17 15 0 12 -4 17 -11 14 -6
-4 -5 3 3 14 11 18 11 23 -1 30 -11 7 -11 9 0 14 12 4 11 7 -1 16 -10 7 -11
11 -2 11 18 0 15 27 -5 40 -15 9 -15 11 -2 7 14 -5 17 4 17 54 0 35 -4 56 -10
53 -5 -3 -4 4 4 15 11 18 11 23 -1 30 -11 7 -11 9 0 14 12 4 11 7 -1 16 -10 7
-11 11 -2 11 18 0 15 27 -5 40 -15 9 -15 11 -2 7 14 -5 17 4 17 54 0 35 -4 56
-10 53 -5 -3 -4 4 4 15 11 18 11 23 -1 30 -11 7 -11 9 0 14 12 4 11 7 -1 16
-10 7 -11 11 -2 11 18 0 15 27 -5 40 -17 11 -17 11 0 6 12 -4 17 0 17 15 0 12
-4 17 -11 14 -6 -4 -5 3 3 14 11 18 11 23 -1 30 -11 7 -11 9 0 14 12 4 11 7
-1 16 -10 7 -11 11 -2 11 18 0 15 27 -5 40 -15 9 -15 11 -2 7 14 -5 17 4 17
54 0 35 -4 56 -10 53 -5 -3 -4 4 4 15 11 18 11 23 -1 30 -11 7 -11 9 0 14 12
4 11 7 -1 16 -10 7 -11 11 -2 11 18 0 15 27 -5 40 -17 11 -17 11 0 6 13 -4 17
0 17 19 0 13 -4 27 -10 30 -5 3 -10 12 -10 18 0 7 4 6 11 -3 7 -12 9 -8 7 15
l-3 30 -692 2 c-381 1 -694 -1 -697 -5z m1381 -304 c-3 -7 -5 -2 -5 12 0 14 2
19 5 13 2 -7 2 -19 0 -25z m-726 -87 c0 11 2 11 6 1 4 -10 8 -10 19 -1 11 9
14 9 14 -1 0 -10 3 -10 14 -1 11 9 15 9 19 -1 4 -9 6 -7 6 4 1 10 8 15 19 13
9 -2 20 -4 24 -4 4 -1 6 -16 5 -35 -1 -19 -5 -32 -8 -30 -11 6 -17 -44 -7 -54
6 -6 1 -17 -12 -30 -16 -15 -18 -22 -9 -27 8 -6 10 -4 4 6 -5 8 -4 10 0 6 15
-13 15 -39 0 -34 -8 4 -11 -1 -8 -13 3 -10 0 -21 -6 -24 -6 -4 -11 -12 -11
-18 0 -6 10 -3 22 8 l21 19 -17 -26 c-15 -24 -15 -27 -1 -32 8 -4 15 -14 15
-24 0 -15 2 -15 16 3 8 10 12 12 8 4 -4 -8 3 -5 15 8 22 22 37 30 26 13 -3 -5
-1 -12 4 -15 5 -4 8 5 7 18 -2 19 1 23 16 21 10 -2 23 -7 28 -10 6 -4 7 1 3
11 -5 13 -3 15 7 9 10 -6 12 -4 7 7 -6 16 8 19 30 5 6 -4 15 -2 19 4 5 8 3 9
-6 4 -9 -6 -11 -4 -6 4 5 7 15 10 23 7 8 -3 11 -1 8 4 -3 6 1 10 10 10 9 0 14
4 11 9 -7 10 23 20 42 14 6 -3 12 -9 12 -14 0 -6 -4 -7 -10 -4 -5 3 -10 2 -10
-3 0 -6 7 -13 16 -16 13 -5 14 -9 4 -21 -11 -13 -10 -14 4 -9 12 5 15 2 10
-10 -3 -9 -10 -13 -15 -10 -20 12 -7 -9 21 -35 31 -28 31 -28 12 -51 -14 -18
-21 -20 -27 -10 -5 8 -4 11 3 6 6 -3 13 -2 16 2 7 12 -41 9 -51 -2 -4 -5 -3
-6 3 -3 6 3 11 0 11 -8 0 -8 -5 -11 -11 -7 -6 3 -28 8 -49 9 -28 2 -36 -1 -31
-10 5 -8 2 -7 -9 2 -10 7 -17 9 -17 3 0 -12 -18 -11 -39 2 -10 6 -12 5 -7 -3
6 -9 0 -11 -20 -9 -25 3 -29 -1 -30 -22 -1 -14 -2 -29 -4 -35 -6 -20 13 -45
34 -46 20 0 20 -1 1 -9 -17 -7 -17 -9 -2 -9 9 -1 17 -6 17 -12 0 -5 5 -7 10
-4 6 3 10 2 10 -4 0 -5 -6 -12 -12 -15 -7 -3 -2 -3 11 0 16 4 21 3 17 -5 -4
-6 0 -11 11 -11 15 0 16 -2 3 -11 -12 -9 -10 -10 8 -6 18 4 21 3 12 -8 -8 -10
-8 -15 1 -21 8 -5 10 -3 5 7 -4 8 1 4 12 -8 11 -12 23 -19 27 -15 4 4 5 0 3
-8 -3 -8 -11 -14 -18 -12 -10 2 -10 -1 1 -14 8 -10 9 -15 3 -11 -7 4 -14 0
-18 -8 -3 -9 -12 -12 -22 -8 -12 4 -15 3 -10 -5 4 -7 2 -12 -4 -12 -6 0 -8 -5
-4 -12 5 -8 0 -7 -11 2 -10 8 -16 10 -12 4 4 -7 0 -15 -8 -18 -9 -3 -20 -16
-25 -28 -6 -17 -9 -18 -9 -6 -1 9 -5 20 -11 23 -6 4 -7 -1 -4 -12 5 -15 4 -15
-5 -3 -7 11 -5 20 7 35 16 19 16 19 -2 5 -18 -14 -19 -13 -14 8 4 12 2 20 -3
16 -8 -4 -10 1 -9 21 1 3 -6 13 -15 22 -9 8 -13 23 -10 32 5 13 4 14 -6 4 -7
-7 -18 -13 -24 -13 -5 0 -3 5 5 10 13 9 13 11 0 20 -10 6 -11 10 -2 10 6 0 12
4 12 9 0 5 -9 7 -20 4 -13 -4 -20 -1 -18 7 5 22 -29 36 -53 21 -20 -12 -21
-11 -15 4 5 15 4 16 -9 5 -8 -7 -12 -17 -8 -23 4 -6 0 -8 -10 -4 -10 3 -17 2
-17 -3 0 -6 5 -10 11 -10 6 0 3 -7 -5 -16 -9 -8 -16 -24 -16 -35 0 -11 -4 -17
-10 -14 -5 3 -11 -3 -11 -14 -2 -34 -4 -39 -13 -48 -5 -4 -6 -3 -2 4 3 6 2 14
-3 18 -6 3 -8 -6 -5 -21 3 -14 0 -32 -7 -40 -15 -18 -49 -18 -49 0 0 7 -8 20
-17 27 -17 13 -17 13 -3 -6 14 -19 14 -19 -2 -6 -10 7 -18 23 -19 35 0 11 -3
15 -6 9 -2 -7 -9 -13 -14 -13 -6 0 -7 5 -3 12 5 8 2 9 -11 4 -15 -5 -16 -4 -6
8 9 11 9 14 -1 12 -7 0 -14 3 -15 8 -1 5 -7 13 -15 18 -8 6 -5 7 12 2 23 -6
24 -6 10 11 -8 11 -10 16 -4 12 13 -8 47 26 37 37 -4 4 1 4 12 0 11 -4 17 -4
13 0 -8 10 14 36 25 29 4 -2 7 3 7 11 0 8 8 17 18 20 13 5 18 17 19 51 1 26
-3 43 -8 40 -5 -4 -9 -1 -9 5 0 8 -6 7 -22 -1 -18 -10 -20 -9 -15 5 4 10 3 15
-3 11 -6 -3 -13 0 -16 8 -6 16 -20 17 -43 3 -10 -7 -12 -5 -6 3 5 9 -1 12 -21
11 -16 -1 -36 -2 -44 -1 -13 1 -13 2 0 11 9 6 10 10 3 10 -6 0 -15 -4 -18 -10
-3 -5 -11 -10 -16 -10 -6 0 -7 6 -3 13 5 8 2 8 -9 -2 -9 -7 -17 -12 -18 -10
-6 31 -6 38 2 33 13 -8 11 10 -3 25 -11 10 -10 12 2 9 8 -2 14 3 12 11 -2 8 3
11 12 8 9 -4 16 2 20 16 9 34 7 49 -5 41 -8 -5 -8 -1 0 13 6 11 7 24 3 29 -4
4 5 0 20 -9 15 -9 31 -17 35 -17 4 0 1 5 -7 10 -12 7 -10 9 7 8 14 -2 20 -8
18 -19 -2 -12 1 -16 10 -13 13 5 75 -21 75 -32 0 -3 -4 -3 -9 1 -5 3 -12 1
-15 -4 -7 -11 13 -9 32 3 8 5 20 0 32 -14 11 -13 26 -20 35 -16 8 3 15 0 16
-7 0 -8 2 -8 5 -1 3 6 17 9 32 7 20 -3 23 -2 13 5 -12 8 -11 11 2 13 15 4 15
7 3 31 -10 19 -11 30 -4 34 6 4 5 10 -3 15 -12 8 -11 11 1 19 12 7 12 10 1 10
-8 0 -11 6 -7 16 3 8 2 12 -4 9 -6 -3 -10 -1 -10 5 0 6 -5 8 -12 4 -7 -4 -8
-3 -4 5 4 6 11 9 15 7 4 -3 8 2 8 10 0 9 -6 13 -16 9 -13 -4 -13 -3 1 8 15 12
15 14 -1 24 -22 14 -24 46 -3 38 12 -4 13 -3 2 10 -11 13 -10 14 5 9 14 -6 16
-4 11 7 -4 8 2 3 13 -10 13 -15 21 -18 22 -10z m-36 -140 c3 -5 2 -12 -3 -15
-5 -3 -9 1 -9 9 0 17 3 19 12 6z m762 -173 c-3 -7 -5 -2 -5 12 0 14 2 19 5 13
2 -7 2 -19 0 -25z m-537 -68 c0 -5 -2 -10 -4 -10 -3 0 -8 5 -11 10 -3 6 -1 10
4 10 6 0 11 -4 11 -10z m537 -172 c-3 -7 -5 -2 -5 12 0 14 2 19 5 13 2 -7 2
-19 0 -25z m0 -400 c-3 -7 -5 -2 -5 12 0 14 2 19 5 13 2 -7 2 -19 0 -25z m0
-240 c-3 -7 -5 -2 -5 12 0 14 2 19 5 13 2 -7 2 -19 0 -25z"/>
</g>
</svg>
