<?xml version="1.0" standalone="no"?>
<!DOCTYPE svg PUBLIC "-//W3C//DTD SVG 20010904//EN"
 "http://www.w3.org/TR/2001/REC-SVG-20010904/DTD/svg10.dtd">
<svg version="1.0" xmlns="http://www.w3.org/2000/svg"
 width="260.000000pt" height="260.000000pt" viewBox="0 0 260.000000 260.000000"
 preserveAspectRatio="xMidYMid meet">
<metadata>
Created by potrace 1.11, written by Peter Selinger 2001-2013
</metadata>
<g transform="translate(0.000000,260.000000) scale(0.100000,-0.100000)"
fill="#000000" stroke="none">
<path d="M1206 2402 c-43 -108 -112 -272 -152 -364 -41 -92 -74 -173 -74 -181
0 -14 98 -112 188 -186 28 -25 50 -46 48 -49 -7 -7 -148 74 -215 123 l-60 44
-164 -322 c-179 -350 -254 -491 -564 -1055 -113 -205 -203 -375 -200 -378 2
-3 60 26 128 64 314 176 573 287 797 342 l92 23 -7 36 c-5 20 -8 88 -7 151 1
176 49 300 149 388 135 119 307 28 382 -202 22 -68 26 -101 27 -201 1 -66 -2
-132 -7 -147 -6 -24 -4 -28 20 -34 238 -53 533 -176 847 -353 70 -39 131 -70
133 -67 3 3 -43 95 -102 205 l-108 201 -101 79 c-56 43 -137 102 -181 130 -44
29 -82 55 -85 57 -11 12 151 -51 213 -82 37 -19 67 -32 67 -29 0 3 -51 101
-114 218 -368 688 -568 1096 -752 1529 -60 142 -111 258 -114 258 -3 0 -40
-89 -84 -198z"/>
</g>
</svg>
